<?xml version="1.0" encoding="UTF-8"?>
<svg id="ring-03" xmlns="http://www.w3.org/2000/svg" version="1.1" viewBox="0 0 54 54">
  <!-- Generator: Adobe Illustrator 29.8.4, SVG Export Plug-In . SVG Version: 2.1.1 Build 6)  -->
  <defs>
    <style>
      .st0 {
        fill: #1d1d1b;
      }
    </style>
  </defs>
  <path id="ring-031" data-name="ring-03" class="st0" d="M38.3,36.2c-.3.4-.6.8-1,1.1-2.6,2.6-6.3,4.3-10.3,4.3s-7.7-1.6-10.3-4.3c-.4-.3-.7-.7-1-1.1l-8.9,5.5c.8,1.1,1.6,2.1,2.6,3,4.5,4.5,10.8,7.3,17.7,7.3,6.9,0,13.2-2.8,17.7-7.3s1.8-1.9,2.5-3c0,0-8.9-5.5-8.9-5.5Z"/>
  <path id="ring-02" class="st0" d="M44.7,9.3c-4.1-4.1-9.6-6.8-15.7-7.2v10.5c3.2.4,6.2,1.9,8.4,4.1,2.6,2.6,4.3,6.3,4.3,10.3s-.4,4.1-1.2,5.9l8.9,5.5c1.7-3.4,2.7-7.3,2.7-11.4,0-6.9-2.8-13.2-7.3-17.7h0Z"/>
  <path id="ring-01" class="st0" d="M4.7,38.3c-1.7-3.4-2.7-7.3-2.7-11.4,0-6.9,2.8-13.2,7.3-17.7,4.1-4.1,9.6-6.8,15.7-7.2v10.5c-3.2.4-6.2,1.9-8.4,4.1-2.6,2.6-4.3,6.3-4.3,10.3s.4,4.1,1.2,5.9l-8.9,5.5h0Z"/>
  <ellipse id="ring-center" class="st0" cx="27" cy="27" rx="10.6" ry="10.7"/>
</svg>