<?xml version="1.0" encoding="UTF-8"?>
<svg id="stylus" xmlns="http://www.w3.org/2000/svg" version="1.1" viewBox="0 0 44.6 344.8">
  <!-- Generator: Adobe Illustrator 29.8.4, SVG Export Plug-In . SVG Version: 2.1.1 Build 6)  -->
  <path id="outline" d="M22.3,2c5.3,0,9.6,4.3,9.6,9.6v5.5c0,.4,0,.8-.2,1.1,2.8.5,5,2.9,5.1,5.8l1.9,131.7c0,.8-.2,1.6-.7,2.3,1.4.6,2.4,2,2.4,3.6l2.1,134.3c.2,7.9-1.7,15.8-5.6,22.9h0c-.4.8-2.3,3.6-3,4.8-.4.6-1,1.1-1.7,1.3,0,.6,0,1.3-.5,1.8l-3.6,5c-.5.7-1.2,1.4-1.9,1.8.1.3.2.6.1,1l-.3,4.9c-.1,2-1.8,3.5-3.8,3.5s-3.6-1.6-3.8-3.5l-.3-4.9c0-.3,0-.7.1-1-.7-.5-1.4-1.1-1.9-1.8l-3.6-5c-.4-.5-.5-1.2-.5-1.8-.7-.2-1.3-.6-1.7-1.3-.7-1.1-2.6-4-3-4.7h0c-3.9-7.1-5.8-15.1-5.6-23l2.1-134.3c0-1.6,1-3,2.4-3.6-.4-.7-.7-1.5-.7-2.3L7.8,24c0-3,2.3-5.4,5.1-5.9-.1-.3-.2-.7-.2-1.1v-5.5c0-5.3,4.3-9.6,9.6-9.6M22.3,0h0C15.9,0,10.7,5.2,10.7,11.6v5.1c-2.8,1.2-4.8,4-4.9,7.2l-1.9,131.7c0,.5,0,1.1.2,1.6-1.2,1.1-1.9,2.6-1.9,4.3L0,295.8c-.3,8.3,1.8,16.6,5.8,23.9h0c0,.1,0,.2,0,.2.5.8,2.6,4.1,3,4.7.4.6.9,1.1,1.5,1.5.1.6.4,1.1.8,1.6l3.6,5c.4.6.9,1.1,1.4,1.5v.2l.3,4.9c.2,3,2.7,5.4,5.8,5.4s5.6-2.4,5.8-5.4l.3-4.9v-.2c.5-.5,1-1,1.4-1.5l3.6-5c.4-.5.6-1.1.8-1.6.6-.4,1.1-.9,1.5-1.5.6-1,2.6-4,3-4.7h0s0,0,0,0h0c4.1-7.5,6.1-15.8,5.9-24.1l-2.1-134.3c0-1.7-.8-3.2-1.9-4.3.1-.5.2-1,.2-1.6l-1.9-131.7c-.1-3.2-2.1-6-4.9-7.2v-5.1C33.9,5.2,28.7,0,22.3,0h0Z"/>
  <path id="eraser" d="M29.9,11.6c0-4.2-3.4-7.6-7.6-7.6s-7.6,3.4-7.6,7.6v5.5c0,.5.4,1,1,1h13.2c.5,0,1-.5,1-1,0,0,0-5.5,0-5.5Z"/>
  <path id="tip" d="M22.3,324.6h7.4c.4,0,.6.5.4.8l-3.6,5c-1,1.4-2.6,2.1-4.2,2.1s-3.2-.7-4.2-2.1l-3.6-5c-.2-.3,0-.8.4-.8h7.4ZM24.1,339.1l.3-4.9c0-.3-.3-.6-.6-.5-.3,0-.8.1-1.5.1s-1.1,0-1.5-.1c-.3,0-.6.2-.6.5l.3,4.9c0,.9.8,1.7,1.8,1.7h0c.9,0,1.7-.7,1.8-1.7Z"/>
  <path id="body" d="M7.9,155.8l1.9-131.7c0-2.2,1.9-4,4.1-4h16.7c2.2,0,4.1,1.8,4.1,4l1.9,131.7c0,1.1-.9,2-2,2H9.9c-1.1,0-2-.9-2-2ZM40.5,295.9c.2,7.6-1.6,15.2-5.3,21.9-.4.7-2.3,3.5-3,4.6-.2.3-.5.5-.8.5H13.2c-.3,0-.7-.2-.8-.5-.7-1.1-2.5-4-3-4.6-3.7-6.7-5.6-14.3-5.3-21.9l2.1-134.3c0-1.1.9-2,2-2h28.3c1.1,0,2,.9,2,2l2.1,134.3ZM16.7,230.6l.7,28.6h9.8l.6-28.6c0-3.1-2.4-5.6-5.5-5.6h-.2c-3.1,0-5.5,2.5-5.5,5.6ZM27.2,261.2h-9.8l-.6,24.1c0,3.1,2.4,5.6,5.5,5.6s5.6-2.5,5.5-5.6l-.6-24.1ZM27.9,300.2c0-3.1-2.5-5.6-5.6-5.6s-5.6,2.5-5.6,5.6,2.5,5.6,5.6,5.6,5.6-2.5,5.6-5.6Z"/>
  <g id="button-2">
    <path d="M19.3,257.2l-.6-26.7c0-.9.3-1.8,1-2.5.7-.7,1.5-1,2.5-1h.2c.9,0,1.8.4,2.5,1,.7.7,1,1.6,1,2.5l-.6,26.7h-5.9Z"/>
  </g>
  <g id="button-1">
    <path d="M22.3,289c-.9,0-1.8-.4-2.5-1-.7-.7-1-1.6-1-2.5l.5-22.2h5.9l.5,22.2c0,.9-.3,1.8-1,2.5-.7.7-1.5,1-2.5,1Z"/>
  </g>
  <g id="button-3">
    <path d="M22.3,303.9c-2,0-3.6-1.6-3.6-3.6s1.6-3.6,3.6-3.6,3.6,1.6,3.6,3.6-1.6,3.6-3.6,3.6Z"/>
  </g>
</svg>